<svg xmlns:dc="http://purl.org/dc/elements/1.1/" xmlns:cc="http://creativecommons.org/ns#" xmlns:rdf="http://www.w3.org/1999/02/22-rdf-syntax-ns#" xmlns:svg="http://www.w3.org/2000/svg" xmlns="http://www.w3.org/2000/svg" viewBox="0 0 931.06665 382.17334" height="382.17334" width="931.06665" xml:space="preserve" id="svg2" version="1.1"><metadata id="metadata8"><rdf:RDF><cc:Work rdf:about=""><dc:format>image/svg+xml</dc:format><dc:type rdf:resource="http://purl.org/dc/dcmitype/StillImage"/></cc:Work></rdf:RDF></metadata><defs id="defs6"/><g transform="matrix(1.3333333,0,0,-1.3333333,0,382.17333)" id="g10"><g transform="scale(0.1)" id="g12"><path id="path14" style="fill:#254fa8;fill-opacity:1;fill-rule:nonzero;stroke:none" d="M 6983.01,0 H 0 V 2866.28 H 6983.01 V 0"/><path id="path16" style="fill:#97dab6;fill-opacity:1;fill-rule:nonzero;stroke:none" d="m 5966.52,1535.91 v -97.07 h -97.2 v 0.07 h 97.16 v 97 h 0.04"/><path id="path18" style="fill:#97dab6;fill-opacity:1;fill-rule:nonzero;stroke:none" d="m 5503.75,1595.86 v -59.95 h 97.2 v -97 h -97.2 v -302.64 h -97.07 v 459.59 c 0,81.06 37.95,153.24 97.07,199.76 0.03,0.04 0.07,0.07 0.13,0.1 28.14,22.14 61.11,38.48 97.07,47.13 v -101.77 c -55.28,-22.77 -94.68,-76.23 -97.07,-139.16 -0.1,-2.02 -0.13,-4.04 -0.13,-6.06"/><path id="path20" style="fill:#97dab6;fill-opacity:1;fill-rule:nonzero;stroke:none" d="m 2091.68,1438.91 c 20.45,62.99 79.61,108.5 149.4,108.5 69.79,0 128.95,-45.51 149.36,-108.5 z m 398.84,0 c -11.79,61.01 -45.4,114.23 -92.42,151.25 -43.22,34.03 -97.73,54.31 -157.02,54.31 -123.74,0 -226.81,-88.45 -249.44,-205.56 -3.05,-15.71 -4.64,-31.92 -4.64,-48.52 0,-16.57 1.59,-32.78 4.64,-48.49 0,0 0,-0.03 0,-0.06 5.1,-26.38 14.28,-51.3 26.87,-74.1 43.25,-78.38 126.7,-131.44 222.57,-131.44 59.29,0 113.8,20.29 157.02,54.32 26.68,20.98 49.04,47.22 65.55,77.12 h -124.51 c -26.84,-21.51 -60.94,-34.4 -98.06,-34.4 -37.12,0 -71.18,12.89 -98.06,34.4 -23.7,18.92 -41.76,44.6 -51.34,74.1 0,0.03 -0.03,0.03 0,0.06 h 398.84 c 2.92,15.02 4.51,30.49 4.61,46.3 v 4.38 c -0.1,15.84 -1.69,31.31 -4.61,46.33"/><path id="path22" style="fill:#97dab6;fill-opacity:1;fill-rule:nonzero;stroke:none" d="m 2495.16,1390.39 c 0,-0.73 0,-1.46 -0.03,-2.19 v 4.38 c 0.03,-0.73 0.03,-1.46 0.03,-2.19"/><path id="path24" style="fill:#97dab6;fill-opacity:1;fill-rule:nonzero;stroke:none" d="m 4750.24,1245.24 v -101.81 c -35.95,8.71 -68.93,25.05 -97.06,47.22 -46.99,36.99 -80.6,90.21 -92.4,151.19 -3.05,15.71 -4.64,31.94 -4.64,48.55 v 459.55 h 97.04 v -459.55 c 0,-16.94 2.68,-33.24 7.65,-48.55 14.22,-43.81 47.19,-79.17 89.41,-96.6"/><path id="path26" style="fill:#97dab6;fill-opacity:1;fill-rule:nonzero;stroke:none" d="M 3077.47,1390.39 V 1136.3 h -97.07 v 254.09 c 0,16.93 -2.68,33.24 -7.65,48.52 -20.42,62.99 -79.57,108.5 -149.37,108.5 -69.79,0 -128.94,-45.51 -149.39,-108.5 -4.97,-15.28 -7.66,-31.59 -7.66,-48.52 V 1136.3 h -97.03 v 254.09 c 0,16.6 1.59,32.81 4.64,48.52 11.8,61.01 45.4,114.23 92.39,151.25 43.22,34.03 97.77,54.31 157.05,54.31 59.29,0 113.81,-20.28 157.02,-54.31 47.03,-37.02 80.63,-90.24 92.43,-151.25 3.05,-15.71 4.64,-31.92 4.64,-48.52"/><path id="path28" style="fill:#97dab6;fill-opacity:1;fill-rule:nonzero;stroke:none" d="m 3555.05,1341.84 c -20.45,-62.97 -79.57,-108.5 -149.36,-108.5 -69.8,0 -128.92,45.53 -149.36,108.5 -4.98,15.31 -7.66,31.61 -7.66,48.55 0,16.93 2.68,33.24 7.66,48.52 20.41,62.99 79.56,108.5 149.36,108.5 69.79,0 128.95,-45.51 149.36,-108.5 4.97,-15.28 7.66,-31.59 7.66,-48.52 0,-16.94 -2.69,-33.24 -7.66,-48.55 z m 7.66,508.1 v -259.78 c -43.22,34.03 -97.74,54.31 -157.02,54.31 -123.71,0 -226.81,-88.45 -249.45,-205.56 -3.05,-15.71 -4.64,-31.92 -4.64,-48.52 0,-16.61 1.59,-32.84 4.64,-48.55 22.64,-117.12 125.74,-205.54 249.45,-205.54 59.28,0 113.8,20.29 157.02,54.32 v -54.32 h 97.06 v 713.64 h -97.06"/><path id="path30" style="fill:#97dab6;fill-opacity:1;fill-rule:nonzero;stroke:none" d="m 3987.99,1233.34 c -69.79,0 -128.91,45.53 -149.36,108.5 -4.97,15.31 -7.66,31.61 -7.66,48.55 0,16.93 2.69,33.24 7.66,48.52 20.41,62.99 79.57,108.5 149.36,108.5 69.79,0 128.95,-45.51 149.4,-108.5 4.97,-15.28 7.65,-31.59 7.65,-48.52 0,-16.94 -2.68,-33.24 -7.65,-48.55 -20.45,-62.97 -79.61,-108.5 -149.4,-108.5 z m 249.45,205.57 c -22.64,117.11 -125.74,205.56 -249.45,205.56 -123.71,0 -226.81,-88.45 -249.44,-205.56 -3.05,-15.71 -4.64,-31.92 -4.64,-48.52 0,-16.61 1.59,-32.84 4.64,-48.55 22.63,-117.12 125.73,-205.54 249.44,-205.54 123.71,0 226.81,88.42 249.45,205.54 3.05,15.71 4.64,31.94 4.64,48.55 0,16.6 -1.59,32.81 -4.64,48.52"/><path id="path32" style="fill:#97dab6;fill-opacity:1;fill-rule:nonzero;stroke:none" d="m 5078.46,1233.34 c -4.77,0 -9.47,0.2 -14.15,0.63 -16,1.42 -31.31,5.27 -45.6,11.17 -31.02,12.75 -57.06,35.19 -74.36,63.56 -6.3,10.34 -11.47,21.44 -15.25,33.14 -4.97,15.31 -7.65,31.61 -7.65,48.55 0,16.93 2.68,33.24 7.65,48.52 3.78,11.73 8.95,22.83 15.25,33.17 17.3,28.33 43.31,50.77 74.33,63.56 14.28,5.87 29.63,9.71 45.63,11.14 4.68,0.43 9.38,0.63 14.15,0.63 69.8,0 128.95,-45.51 149.4,-108.5 4.97,-15.28 7.65,-31.59 7.65,-48.52 0,-16.94 -2.68,-33.24 -7.65,-48.55 -20.45,-62.97 -79.6,-108.5 -149.4,-108.5 z m 249.45,205.57 c -22.64,117.11 -125.7,205.56 -249.45,205.56 -4.74,0 -9.44,-0.13 -14.15,-0.39 -43.87,-2.39 -84.8,-15.95 -119.96,-37.88 -29.33,-18.23 -54.65,-42.29 -74.34,-70.56 -19.95,-28.5 -34.16,-61.31 -40.99,-96.73 -3.05,-15.71 -4.64,-31.92 -4.64,-48.52 0,-16.61 1.59,-32.84 4.64,-48.55 6.83,-35.4 21.04,-68.2 40.96,-96.7 19.72,-28.27 45.04,-52.33 74.37,-70.56 35.16,-21.94 76.09,-35.49 119.96,-37.88 4.71,-0.26 9.41,-0.4 14.15,-0.4 123.75,0 226.81,88.42 249.45,205.54 3.05,15.71 4.64,31.94 4.64,48.55 0,16.6 -1.59,32.81 -4.64,48.52"/><path id="path34" style="fill:#97dab6;fill-opacity:1;fill-rule:nonzero;stroke:none" d="m 5966.48,1535.91 v -97 h -97.16 v -302.64 l -97.07,0.03 v 302.61 h -97.17 v 97 h 97.17 v 288.31 c 39.04,-19.05 72.41,-47.85 97.07,-83.18 v -205.13 h 97.16"/><path id="path36" style="fill:#97dab6;fill-opacity:1;fill-rule:nonzero;stroke:none" d="m 1478.53,1390.4 c 0,-33.14 -26.84,-59.98 -59.98,-59.98 -16.55,0 -31.56,6.72 -42.4,17.55 -37.9,37.93 -99.35,37.93 -137.25,0 -11.72,-11.69 -27.09,-17.55 -42.43,-17.55 h -119.96 c -15.34,0 -30.7,5.86 -42.42,17.55 -23.42,23.44 -23.42,61.41 0,84.85 11.72,11.7 27.08,17.56 42.42,17.56 h 119.96 c 15.34,0 30.71,-5.86 42.43,-17.56 37.9,-37.92 99.35,-37.92 137.25,0 10.84,10.84 25.85,17.56 42.4,17.56 33.14,0 59.98,-26.85 59.98,-59.98"/><path id="path38" style="fill:#97dab6;fill-opacity:1;fill-rule:nonzero;stroke:none" d="m 1635.58,1547.45 c 0,-33.14 -26.85,-60.01 -59.98,-60.01 -33.13,0 -59.98,26.87 -59.98,60.01 0,53.59 -43.45,97.04 -97.07,97.04 h -342.04 c -33.13,0 -59.98,26.85 -59.98,59.98 0,33.14 26.85,59.98 59.98,59.98 h 342.04 c 33.14,0 59.98,-26.84 59.98,-59.98 0,-53.59 43.47,-97.04 97.07,-97.04 33.13,0 59.98,-26.87 59.98,-59.98"/><path id="path40" style="fill:#97dab6;fill-opacity:1;fill-rule:nonzero;stroke:none" d="m 1635.58,1233.35 c 0,-33.11 -26.85,-59.98 -59.98,-59.98 -53.6,0 -97.07,-43.45 -97.07,-97.05 0,-33.13 -26.84,-59.98 -59.98,-59.98 h -342.04 c -33.13,0 -59.98,26.85 -59.98,59.98 0,33.14 26.85,59.98 59.98,59.98 h 342.04 c 53.62,0 97.07,43.45 97.07,97.05 0,33.13 26.85,60 59.98,60 33.13,0 59.98,-26.87 59.98,-60"/></g></g></svg>