<?xml version="1.0" encoding="UTF-8"?>
<svg version="1.1" xmlns="http://www.w3.org/2000/svg" width="148" height="767">
<path d="M0 0 C0.96421875 0.32871094 1.9284375 0.65742187 2.921875 0.99609375 C20.03991068 7.40427032 35.06783323 20.34517675 42.91796875 36.9453125 C48.02934057 48.2217731 50.36224973 57.6042336 50.375 70.125 C50.39949219 71.36765625 50.42398438 72.6103125 50.44921875 73.890625 C50.47647523 82.594528 49.06925663 89.86590259 46 98 C45.74412109 98.68819824 45.48824219 99.37639648 45.22460938 100.08544922 C40.57722541 111.674287 32.31372601 120.4540704 23.76953125 129.3125 C1.14195458 153.1997562 -5.89665215 185.110203 -5.13183594 216.94921875 C-3.95705501 244.13451963 8.54195643 268.84199712 26.85375977 288.4543457 C42.16308005 304.96356417 50.48367738 321.68621361 50.39440918 344.33132935 C50.3993045 345.87536145 50.40549727 347.41938989 50.41286707 348.96341217 C50.42920892 353.18557462 50.42696042 357.40754965 50.4214921 361.62973261 C50.41881472 366.1916191 50.43336713 370.75345644 50.44558716 375.31532288 C50.46661489 384.24554544 50.47118348 393.17570305 50.46939927 402.10594745 C50.46809007 409.36864252 50.47190386 416.63131737 50.47932434 423.89400864 C50.48142362 425.98851168 50.48352122 428.08301472 50.48561716 430.17751777 C50.48666069 431.22012964 50.48770422 432.2627415 50.48877937 433.33694766 C50.50767172 453.0450907 50.50663489 472.75319649 50.49981004 492.46134482 C50.49423785 510.46893456 50.51504801 528.47638189 50.54817051 546.48393835 C50.58195165 564.99394756 50.59707016 583.50388865 50.59245348 602.01392925 C50.59021294 612.39783903 50.59539083 622.78161727 50.62034607 633.16550064 C50.6414166 642.00799268 50.64489449 650.85028107 50.62604648 659.69278164 C50.61692323 664.19916264 50.61564007 668.70516454 50.63640213 673.21151543 C50.6552449 677.34726914 50.6504618 681.48233679 50.62785631 685.61806546 C50.62370375 687.1039106 50.62775624 688.58980973 50.64145225 690.07559754 C50.81068451 709.79801145 43.93973395 726.17162638 31 741 C30.48050781 741.61488281 29.96101563 742.22976563 29.42578125 742.86328125 C17.25844176 756.19525273 -1.07325576 763.43523016 -18.79296875 764.25390625 C-42.71380489 764.98058175 -60.98279354 758.07723228 -78.62109375 741.54296875 C-83.5568165 736.53212084 -87.21586044 731.36166116 -90.375 725.125 C-90.6846167 724.51390381 -90.9942334 723.90280762 -91.31323242 723.27319336 C-96.7595099 711.80446165 -98.59183166 700.97396821 -98.5146637 688.34587097 C-98.52000016 686.80337228 -98.52707213 685.26087879 -98.53571075 683.71839505 C-98.55421972 679.51435419 -98.548074 675.31066842 -98.53755772 671.10661352 C-98.530532 666.55908733 -98.5465892 662.01163165 -98.55955505 657.46412659 C-98.58114492 648.56838265 -98.5810809 639.6727669 -98.57292951 630.7770054 C-98.56661703 623.54250494 -98.56777797 616.30804172 -98.57420158 609.07354164 C-98.57510324 608.04193747 -98.57600489 607.0103333 -98.57693387 605.9474684 C-98.57878517 603.85142204 -98.58064773 601.75537568 -98.58252143 599.65932933 C-98.59908281 580.02412289 -98.59039524 560.38898841 -98.57353585 540.7537863 C-98.55884439 522.81428133 -98.57346249 504.87494393 -98.60230602 486.93546053 C-98.631743 468.48863103 -98.6426595 450.04187874 -98.63312382 431.59502679 C-98.63210133 429.50598643 -98.63110671 427.41694605 -98.6301403 425.32790565 C-98.62942572 423.78636915 -98.62942572 423.78636915 -98.6286967 422.21369049 C-98.62653803 414.99496625 -98.63630757 407.77631558 -98.65091133 400.55760765 C-98.6684819 391.7499474 -98.66824989 382.9425006 -98.64555968 374.13484856 C-98.63445962 369.6466798 -98.63115807 365.15888642 -98.64986038 360.67073441 C-98.66680258 356.5517436 -98.66013102 352.43345156 -98.63564359 348.3145049 C-98.63080448 346.83480999 -98.63415341 345.35505721 -98.64713103 343.87541129 C-98.81169252 323.63110652 -91.38705367 307.12389696 -78 292 C-76.90759059 290.92541545 -75.80382496 289.86221846 -74.6875 288.8125 C-53.97095941 268.61623782 -43.27502072 239.26468845 -42.64819336 210.76464844 C-42.41934708 178.5527286 -52.75444486 150.41679574 -74.69921875 126.5390625 C-93.49727376 105.79418007 -99.07894681 87.29636886 -98.22216797 59.43505859 C-97.78593247 52.69018665 -95.97312857 47.08277834 -93 41 C-92.5153125 39.90429688 -92.030625 38.80859375 -91.53125 37.6796875 C-82.93680893 19.85886116 -67.03175587 7.45733448 -49 0 C-34.26973673 -5.07815922 -14.62224836 -5.40672956 0 0 Z " fill="#264EA6" transform="translate(98,3)"/>
<path d="M0 0 C0.66 0 1.32 0 2 0 C1.42333499 3.46757778 0.28994833 5.0466356 -2.25 7.4375 C-3.18779297 8.3346875 -3.18779297 8.3346875 -4.14453125 9.25 C-4.75683594 9.8275 -5.36914062 10.405 -6 11 C-6.98281796 11.9755017 -7.9625327 12.9541519 -8.9375 13.9375 C-9.618125 14.618125 -10.29875 15.29875 -11 16 C-11.33 15.01 -11.66 14.02 -12 13 C-12.66 12.67 -13.32 12.34 -14 12 C-11.63707344 9.47411298 -10.33537489 8.11179163 -7 7 C-6.34 7 -5.68 7 -5 7 C-4.67 5.35 -4.34 3.7 -4 2 C-3.01 2 -2.02 2 -1 2 C-0.67 2.33 -0.34 2.66 0 3 C0 2.01 0 1.02 0 0 Z " fill="#5373B9" transform="translate(126,123)"/>
<path d="M0 0 C0.33 0 0.66 0 1 0 C1.48062124 2.68724704 1.95953496 5.37478033 2.4375 8.0625 C2.57220703 8.81466797 2.70691406 9.56683594 2.84570312 10.34179688 C3.6521177 14.88525458 4.37461944 19.42804307 5 24 C4.34 24 3.68 24 3 24 C2.34 21.03 1.68 18.06 1 15 C0.34 15 -0.32 15 -1 15 C-2.1245717 11.62628491 -1.81641956 9.42896214 -1 6 C-0.66055205 4.00102872 -0.32578384 2.00124361 0 0 Z " fill="#5C7CBD" transform="translate(92,223)"/>
<path d="M0 0 C1.43410153 3.78819273 0.51009497 6.06521279 -0.9375 9.75 C-1.31777344 10.73484375 -1.69804688 11.7196875 -2.08984375 12.734375 C-2.39019531 13.48203125 -2.69054687 14.2296875 -3 15 C-3.33 15 -3.66 15 -4 15 C-3.979375 13.783125 -3.95875 12.56625 -3.9375 11.3125 C-3.93175884 8.08022678 -4.21233685 5.15065259 -5 2 C-2 0 -2 0 0 0 Z " fill="#4B6EB5" transform="translate(102,157)"/>
<path d="M0 0 C0.99 0.66 1.98 1.32 3 2 C1.51194289 7.80342274 -1.59097555 12.17590879 -5 17 C-5.33 15.68 -5.66 14.36 -6 13 C-5.34 13 -4.68 13 -4 13 C-4 12.01 -4 11.02 -4 10 C-3.34 10 -2.68 10 -2 10 C-2.33 8.68 -2.66 7.36 -3 6 C-2.34 6 -1.68 6 -1 6 C-1.020625 5.195625 -1.04125 4.39125 -1.0625 3.5625 C-1 1 -1 1 0 0 Z " fill="#5A7ABC" transform="translate(139,721)"/>
<path d="M0 0 C0.33 0 0.66 0 1 0 C1 1.98 1 3.96 1 6 C0.34 6 -0.32 6 -1 6 C-1 7.32 -1 8.64 -1 10 C-0.34 10.33 0.32 10.66 1 11 C0.01 11 -0.98 11 -2 11 C-2 11.66 -2 12.32 -2 13 C-3.65 13.66 -5.3 14.32 -7 15 C-5.63408831 11.45756548 -4.09068516 8.07372071 -2.375 4.6875 C-1.70597656 3.36298828 -1.70597656 3.36298828 -1.0234375 2.01171875 C-0.68570313 1.34785156 -0.34796875 0.68398438 0 0 Z " fill="#5375B9" transform="translate(46,258)"/>
<path d="M0 0 C0.66 0.33 1.32 0.66 2 1 C0.92598892 3.91517292 0.22189824 5.77810176 -2 8 C-1.67 8.66 -1.34 9.32 -1 10 C-3.64 9.67 -6.28 9.34 -9 9 C-6.21000549 5.51250686 -3.74764169 2.49842779 0 0 Z " fill="#3F62B1" transform="translate(30,13)"/>
<path d="M0 0 C4.97093824 0.41153737 9.44508386 0.79600832 14 3 C11.50935112 3.68707555 9.62113708 4 7 4 C6.67 3.67 6.34 3.34 6 3 C4.68 3.99 3.36 4.98 2 6 C1.34 5.67 0.68 5.34 0 5 C0 3.35 0 1.7 0 0 Z " fill="#5C7ABD" transform="translate(87,1)"/>
<path d="M0 0 C0.99 0 1.98 0 3 0 C2.39644592 3.85025879 1.23227397 6.86101159 -0.5625 10.3125 C-1.01753906 11.19550781 -1.47257813 12.07851562 -1.94140625 12.98828125 C-2.29074219 13.65214844 -2.64007813 14.31601563 -3 15 C-3.33 13.68 -3.66 12.36 -4 11 C-3.34 11 -2.68 11 -2 11 C-2.33 9.02 -2.66 7.04 -3 5 C-1.68 4.67 -0.36 4.34 1 4 C0.67 2.68 0.34 1.36 0 0 Z " fill="#6C87C2" transform="translate(142,96)"/>
<path d="M0 0 C-1 3 -1 3 -3 4 C-2.67 5.32 -2.34 6.64 -2 8 C-2.99 8.495 -2.99 8.495 -4 9 C-4.99 8.67 -5.98 8.34 -7 8 C-7 7.34 -7 6.68 -7 6 C-7.99 5.67 -8.98 5.34 -10 5 C-8.71186658 4.16121545 -7.41936744 3.32913217 -6.125 2.5 C-5.40570313 2.0359375 -4.68640625 1.571875 -3.9453125 1.09375 C-2 0 -2 0 0 0 Z " fill="#4E71B9" transform="translate(42,7)"/>
<path d="M0 0 C1.24546405 2.49092811 0.7767578 3.41080733 0 6 C-1.65 6.33 -3.3 6.66 -5 7 C-4.67 7.99 -4.34 8.98 -4 10 C-5.65 10.33 -7.3 10.66 -9 11 C-7.59155282 7.78475695 -5.89655214 5.67816132 -3.375 3.25 C-2.74335938 2.63640625 -2.11171875 2.0228125 -1.4609375 1.390625 C-0.73777344 0.70226562 -0.73777344 0.70226562 0 0 Z " fill="#728EC6" transform="translate(26,289)"/>
<path d="M0 0 C0.66 0.66 1.32 1.32 2 2 C0.8803014 3.00593243 -0.2459412 4.0045849 -1.375 5 C-2.00148438 5.556875 -2.62796875 6.11375 -3.2734375 6.6875 C-5 8 -5 8 -7 8 C-6.67 6.02 -6.34 4.04 -6 2 C-4.02 2 -2.04 2 0 2 C0 1.34 0 0.68 0 0 Z " fill="#5B7ABD" transform="translate(123,746)"/>
<path d="M0 0 C1 2 1 2 -0.0625 5.5 C-1.46306098 8.64798987 -1.82603484 8.92154512 -5.1875 10.4375 C-6.115625 10.623125 -7.04375 10.80875 -8 11 C-6.63629701 8.00779732 -5.05091917 5.70973471 -2.875 3.25 C-2.33617187 2.63640625 -1.79734375 2.0228125 -1.2421875 1.390625 C-0.62730469 0.70226562 -0.62730469 0.70226562 0 0 Z " fill="#6985C1" transform="translate(20,22)"/>
<path d="M0 0 C1.32 0.33 2.64 0.66 4 1 C4 4.63 4 8.26 4 12 C1.57869669 9.57869669 1.47159496 8.19888623 0.875 4.875 C0.70742188 3.96492187 0.53984375 3.05484375 0.3671875 2.1171875 C0.24601563 1.41851563 0.12484375 0.71984375 0 0 Z " fill="#6C87C5" transform="translate(1,708)"/>
<path d="M0 0 C1.32 0.33 2.64 0.66 4 1 C5.23076923 6.41538462 5.23076923 6.41538462 4.0625 9.375 C3.711875 9.91125 3.36125 10.4475 3 11 C2.49384702 9.73160474 1.99530901 8.46016898 1.5 7.1875 C1.2215625 6.47980469 0.943125 5.77210938 0.65625 5.04296875 C0 3 0 3 0 0 Z " fill="#607FBE" transform="translate(47,163)"/>
<path d="M0 0 C-0.3125 2.375 -0.3125 2.375 -1 5 C-1.99 5.66 -2.98 6.32 -4 7 C-4.33 6.01 -4.66 5.02 -5 4 C-5.66 3.67 -6.32 3.34 -7 3 C-3.375 0 -3.375 0 0 0 Z " fill="#4369B4" transform="translate(119,132)"/>
<path d="M0 0 C-0.66 0 -1.32 0 -2 0 C-2 0.66 -2 1.32 -2 2 C-1.01 1.67 -0.02 1.34 1 1 C1 1.66 1 2.32 1 3 C-5.625 2.25 -5.625 2.25 -9 0 C-5.62182575 -0.84454356 -3.32534757 -1.10844919 0 0 Z " fill="#5D7ABD" transform="translate(56,762)"/>
<path d="M0 0 C0.66 0 1.32 0 2 0 C2 0.66 2 1.32 2 2 C2.99 2.33 3.98 2.66 5 3 C7 6 7 6 6.625 8.1875 C6.41875 8.785625 6.2125 9.38375 6 10 C4.99723227 8.52270825 3.99785546 7.04311423 3 5.5625 C2.443125 4.73878906 1.88625 3.91507813 1.3125 3.06640625 C0 1 0 1 0 0 Z " fill="#7791C8" transform="translate(32,138)"/>
<path d="M0 0 C1.32 0.33 2.64 0.66 4 1 C2.35 2.98 0.7 4.96 -1 7 C-1.66 6.34 -2.32 5.68 -3 5 C-2.01 4.67 -1.02 4.34 0 4 C0 2.68 0 1.36 0 0 Z " fill="#6987C3" transform="translate(129,738)"/>
<path d="M0 0 C0.66 0 1.32 0 2 0 C3.0326802 2.78823655 3.04509293 3.8677274 2.0625 6.75 C1.711875 7.4925 1.36125 8.235 1 9 C0.67 9 0.34 9 0 9 C-1.125 2.25 -1.125 2.25 0 0 Z " fill="#5879BD" transform="translate(100,157)"/>
<path d="M0 0 C2.15377564 2.62198774 3.40072174 4.64404172 4 8 C2.35 7.67 0.7 7.34 -1 7 C-0.67 4.69 -0.34 2.38 0 0 Z " fill="#708AC4" transform="translate(139,38)"/>
<path d="M0 0 C2.96404505 2.80804268 5.44499019 5.18315774 7 9 C1.21538462 5.67692308 1.21538462 5.67692308 0.125 2.25 C0.08375 1.5075 0.0425 0.765 0 0 Z " fill="#879ED2" transform="translate(129,24)"/>
<path d="M0 0 C0.66 0.33 1.32 0.66 2 1 C1.375 2.9375 1.375 2.9375 0 5 C-3.125 5.75 -3.125 5.75 -6 6 C-4 4 -2 2 0 0 Z " fill="#718DC5" transform="translate(30,13)"/>
<path d="M0 0 C0.33 0.66 0.66 1.32 1 2 C1.66 2 2.32 2 3 2 C3 4.64 3 7.28 3 10 C0.70366176 6.55549263 0.45983515 4.06187717 0 0 Z " fill="#3059AE" transform="translate(56,198)"/>
</svg>
