<?xml version="1.0" encoding="UTF-8"?>
<svg version="1.1" xmlns="http://www.w3.org/2000/svg" width="148" height="421">
<path d="M0 0 C2.23253984 1.67154265 4.32834451 3.41843794 6.41015625 5.2734375 C7.07273437 5.84320312 7.7353125 6.41296875 8.41796875 7 C19.92578584 17.6052432 29.44860486 34.49021069 30.6315918 50.21728516 C31.55145558 76.33827835 31.55145558 76.33827835 26.41015625 88.2734375 C25.93578125 89.42328125 25.46140625 90.573125 24.97265625 91.7578125 C20.33751451 101.96403807 13.66033816 109.68369159 6.0546875 117.78125 C-4.60098121 129.21016193 -11.99092955 141.74273668 -17.58984375 156.2734375 C-17.98945312 157.28921875 -18.3890625 158.305 -18.80078125 159.3515625 C-28.99742935 187.41151141 -26.81345836 220.23750728 -14.66259766 247.34179688 C-9.05544766 259.08685 -1.66762779 269.17402455 7.11328125 278.7421875 C24.29171315 297.67352062 31.87706452 315.09556955 30.921875 340.8203125 C29.6690384 360.48726698 20.61991731 376.88122433 6.41015625 390.2734375 C-11.258193 405.2586277 -31.00219479 409.51593633 -53.58984375 408.2734375 C-72.66195713 406.29266736 -89.40882211 396.18504872 -101.75 381.74609375 C-112.65341445 367.43930137 -118.19509256 352.55336848 -118.08984375 334.5234375 C-118.08484863 333.38890137 -118.07985352 332.25436523 -118.07470703 331.08544922 C-117.87960619 321.63584102 -116.36044354 313.94880166 -112.58984375 305.2734375 C-112.13222656 304.190625 -111.67460938 303.1078125 -111.203125 301.9921875 C-108.0126124 295.06921222 -103.9517346 288.73193899 -98.58984375 283.2734375 C-97.92984375 283.2734375 -97.26984375 283.2734375 -96.58984375 283.2734375 C-96.34105469 282.69851563 -96.09226562 282.12359375 -95.8359375 281.53125 C-94.40960469 278.94686015 -92.73010761 277.24498765 -90.65234375 275.1484375 C-69.86607812 252.29022899 -61.31526208 221.78353535 -62.21484375 191.41796875 C-63.71166438 161.50494407 -76.27017362 136.3921027 -96.13623047 114.57519531 C-103.63459744 106.33047925 -109.34537186 98.71318313 -113.58984375 88.2734375 C-114.23759766 86.76716797 -114.23759766 86.76716797 -114.8984375 85.23046875 C-121.45412427 66.96981875 -119.07004661 45.54813789 -111.203125 28.21875 C-107.84374506 21.57362037 -103.47229694 15.868517 -98.58984375 10.2734375 C-98.07035156 9.65855469 -97.55085938 9.04367188 -97.015625 8.41015625 C-72.52150953 -18.42848412 -28.97220814 -19.31480542 0 0 Z " fill="#274FA6" transform="translate(117.58984375,12.7265625)"/>
<path d="M0 0 C0.1546875 0.62390625 0.309375 1.2478125 0.46875 1.890625 C0.79395876 3.18189506 1.13418335 4.46964174 1.5 5.75 C2.2529937 9.13847167 2.59782944 12.5528238 3 16 C2.67 15.34 2.34 14.68 2 14 C0.35 14.33 -1.3 14.66 -3 15 C-3 17.31 -3 19.62 -3 22 C-3.33 22 -3.66 22 -4 22 C-4.62599202 14.17509977 -2.32514129 7.39062767 0 0 Z " fill="#5B7ABC" transform="translate(4,320)"/>
<path d="M0 0 C4.61513112 1.31860889 8.09897612 3.21355437 12 6 C11.67 6.66 11.34 7.32 11 8 C10.278125 7.814375 9.55625 7.62875 8.8125 7.4375 C5.87173027 6.98004693 3.85896942 7.26483643 1 8 C0.67 5.36 0.34 2.72 0 0 Z " fill="#4C6EB7" transform="translate(104,6)"/>
<path d="M0 0 C0.33 0.66 0.66 1.32 1 2 C3.97 1.34 6.94 0.68 10 0 C10.33 1.98 10.66 3.96 11 6 C8 7 8 7 5.51953125 6.00390625 C4.62621094 5.52824219 3.73289062 5.05257813 2.8125 4.5625 C1.91144531 4.08941406 1.01039062 3.61632812 0.08203125 3.12890625 C-0.60503906 2.75636719 -1.29210938 2.38382812 -2 2 C-1.34 1.34 -0.68 0.68 0 0 Z " fill="#2D56A9" transform="translate(37,409)"/>
<path d="M0 0 C0.33 0 0.66 0 1 0 C1.53084792 2.91516484 2.04999055 5.83160557 2.5625 8.75 C2.71396484 9.575 2.86542969 10.4 3.02148438 11.25 C3.16005859 12.04921875 3.29863281 12.8484375 3.44140625 13.671875 C3.57232666 14.4050293 3.70324707 15.13818359 3.83813477 15.89355469 C4.01247412 18.16233287 3.66874807 19.83778579 3 22 C2.13624104 20.38007835 1.28424146 18.75388139 0.4375 17.125 C-0.03816406 16.22007812 -0.51382813 15.31515625 -1.00390625 14.3828125 C-1.49697266 13.20332031 -1.49697266 13.20332031 -2 12 C-1.67 11.34 -1.34 10.68 -1 10 C-0.77377919 8.29636178 -0.59111527 6.58671299 -0.4375 4.875 C-0.35371094 3.96492187 -0.26992187 3.05484375 -0.18359375 2.1171875 C-0.12300781 1.41851562 -0.06242187 0.71984375 0 0 Z " fill="#6984C2" transform="translate(92,222)"/>
<path d="M0 0 C0.99 0.33 1.98 0.66 3 1 C0.69281189 5.28477792 -1.32966073 8.72291137 -5 12 C-5.33 9.69 -5.66 7.38 -6 5 C-5.195625 4.54625 -4.39125 4.0925 -3.5625 3.625 C-0.91143428 2.25274335 -0.91143428 2.25274335 0 0 Z " fill="#4C6EB7" transform="translate(135,384)"/>
<path d="M0 0 C-1.98 2.97 -3.96 5.94 -6 9 C-8 6 -8 6 -7.875 3.4375 C-7 1 -7 1 -5.125 -0.375 C-3 -1 -3 -1 0 0 Z " fill="#5575B9" transform="translate(113,144)"/>
<path d="M0 0 C0.33 0.66 0.66 1.32 1 2 C1.99 2.33 2.98 2.66 4 3 C1.47354714 7.30983135 -1.49346365 8.29942025 -6 10 C-4.6302836 6.00499382 -2.74277578 3.19990508 0 0 Z " fill="#5373B8" transform="translate(15,28)"/>
<path d="M0 0 C0.33 0 0.66 0 1 0 C1 1.98 1 3.96 1 6 C1.66 6 2.32 6 3 6 C3 6.66 3 7.32 3 8 C3.66 8.33 4.32 8.66 5 9 C4.814375 9.61875 4.62875 10.2375 4.4375 10.875 C3.76313824 13.04160178 3.76313824 13.04160178 5 15 C4.01 16.485 4.01 16.485 3 18 C1.14256832 11.88595404 -0.42765417 6.41481258 0 0 Z " fill="#728DC7" transform="translate(0,80)"/>
<path d="M0 0 C0.33 0 0.66 0 1 0 C1 1.98 1 3.96 1 6 C0.34 6 -0.32 6 -1 6 C-1 7.98 -1 9.96 -1 12 C-2.32 12.33 -3.64 12.66 -5 13 C-5 13.99 -5 14.98 -5 16 C-5.66 16 -6.32 16 -7 16 C-5.56835889 12.34061828 -4.01065704 8.76011932 -2.375 5.1875 C-1.92898437 4.21167969 -1.48296875 3.23585938 -1.0234375 2.23046875 C-0.51683594 1.12638672 -0.51683594 1.12638672 0 0 Z " fill="#6684C2" transform="translate(46,257)"/>
<path d="M0 0 C0.66 0.33 1.32 0.66 2 1 C1.67 2.98 1.34 4.96 1 7 C-0.32 7 -1.64 7 -3 7 C-3 6.34 -3 5.68 -3 5 C-3.99 4.67 -4.98 4.34 -6 4 C-4.02 2.68 -2.04 1.36 0 0 Z " fill="#5575BC" transform="translate(38,8)"/>
<path d="M0 0 C0.66 0 1.32 0 2 0 C2.33 0.33 2.66 0.66 3 1 C3.99 0.67 4.98 0.34 6 0 C6 0.99 6 1.98 6 3 C3.36 3.99 0.72 4.98 -2 6 C-2 5.34 -2 4.68 -2 4 C-1.34 4 -0.68 4 0 4 C-0.33 3.01 -0.66 2.02 -1 1 C-0.67 0.67 -0.34 0.34 0 0 Z " fill="#5273B9" transform="translate(104,410)"/>
<path d="M0 0 C2.4322918 2.3276771 3.62032809 3.58295278 4 7 C3.72686657 9.34114367 3.40197001 11.67750658 3 14 C0.81005752 10.71508627 0.64722661 9.16904361 0.375 5.3125 C0.30023437 4.31863281 0.22546875 3.32476562 0.1484375 2.30078125 C0.09945313 1.54152344 0.05046875 0.78226562 0 0 Z " fill="#748DC6" transform="translate(0,354)"/>
<path d="M0 0 C1.32 1.32 2.64 2.64 4 4 C2.74458443 6.51083114 1.49936512 6.87125446 -1 8 C-1.93065133 5.39417629 -2.14917407 4.35801776 -1.0625 1.75 C-0.711875 1.1725 -0.36125 0.595 0 0 Z " fill="#496DB7" transform="translate(133,29)"/>
<path d="M0 0 C0 3.10551666 -0.5393715 4.35261084 -2 7 C-1.34 7.33 -0.68 7.66 0 8 C-0.99 8.33 -1.98 8.66 -3 9 C-4.32 8.34 -5.64 7.68 -7 7 C-4.69 4.69 -2.38 2.38 0 0 Z " fill="#6782C1" transform="translate(23,19)"/>
<path d="M0 0 C0.66 0.33 1.32 0.66 2 1 C1.25 3.4375 1.25 3.4375 0 6 C-2 6.9375 -2 6.9375 -4 7 C-4.66 6.34 -5.32 5.68 -6 5 C-4.02 3.35 -2.04 1.7 0 0 Z " fill="#5D7CBD" transform="translate(30,13)"/>
<path d="M0 0 C2.6855594 2.6855594 3.06049974 5.37621328 4 9 C3.34 9 2.68 9 2 9 C2 8.34 2 7.68 2 7 C1.01 6.67 0.02 6.34 -1 6 C-1.6875 3.9375 -1.6875 3.9375 -2 2 C-1.34 2 -0.68 2 0 2 C0 1.34 0 0.68 0 0 Z " fill="#6280BF" transform="translate(140,313)"/>
<path d="M0 0 C3 2 3 2 4 4 C3.67 4.66 3.34 5.32 3 6 C3.99 6 4.98 6 6 6 C5.67 7.98 5.34 9.96 5 12 C3.20931427 9.3139714 2.33944209 7.3373411 1.375 4.3125 C1.11460938 3.50425781 0.85421875 2.69601563 0.5859375 1.86328125 C0.39257812 1.24839844 0.19921875 0.63351563 0 0 Z " fill="#738FC6" transform="translate(46,162)"/>
<path d="M0 0 C0.6875 2.3125 0.6875 2.3125 1 5 C-0.4375 6.8125 -0.4375 6.8125 -2 8 C-2.12375 7.360625 -2.2475 6.72125 -2.375 6.0625 C-2.684375 5.0415625 -2.684375 5.0415625 -3 4 C-3.66 3.67 -4.32 3.34 -5 3 C-2.25 0 -2.25 0 0 0 Z " fill="#4367B4" transform="translate(117,132)"/>
<path d="M0 0 C2.15377564 2.62198774 3.40072174 4.64404172 4 8 C2.68 7.67 1.36 7.34 0 7 C-0.33 7.99 -0.66 8.98 -1 10 C-2.27351308 7.45297384 -1.80191925 6.5717055 -1.0625 3.875 C-0.86785156 3.15054688 -0.67320312 2.42609375 -0.47265625 1.6796875 C-0.31667969 1.12539063 -0.16070312 0.57109375 0 0 Z " fill="#5D7BBF" transform="translate(139,38)"/>
<path d="M0 0 C0.66 0.66 1.32 1.32 2 2 C1.64700993 5.44165321 0.95418308 7.06872538 -1 10 C-1.66 10 -2.32 10 -3 10 C-2.01 6.7 -1.02 3.4 0 0 Z " fill="#6583C0" transform="translate(50,247)"/>
<path d="M0 0 C0.33 0.66 0.66 1.32 1 2 C2.98 1.67 4.96 1.34 7 1 C7 2.65 7 4.3 7 6 C3.22454612 4.90931332 0.52956528 4.0916909 -2 1 C-1.34 0.67 -0.68 0.34 0 0 Z " fill="#5B7CBB" transform="translate(37,409)"/>
<path d="M0 0 C1.65 1.65 3.3 3.3 5 5 C4.01 5.33 3.02 5.66 2 6 C1.67 6.99 1.34 7.98 1 9 C-0.61949011 6.42786866 -1.04408751 5.32330841 -0.625 2.25 C-0.41875 1.5075 -0.2125 0.765 0 0 Z " fill="#4566B6" transform="translate(129,298)"/>
<path d="M0 0 C3.99996286 1.33332095 4.83782337 3.4957827 7 7 C6.67 7.66 6.34 8.32 6 9 C0.42857143 3.85714286 0.42857143 3.85714286 0 0 Z " fill="#587ABB" transform="translate(104,267)"/>
<path d="M0 0 C1.98 0.66 3.96 1.32 6 2 C5.67 3.65 5.34 5.3 5 7 C3.29115995 5.37660195 1.62553283 3.70680947 0 2 C0 1.34 0 0.68 0 0 Z " fill="#5C7BBD" transform="translate(10,111)"/>
<path d="M0 0 C1.9375 0.3125 1.9375 0.3125 4 1 C5 4 5 4 4.0625 6.1875 C3.5365625 7.0846875 3.5365625 7.0846875 3 8 C0 2.25 0 2.25 0 0 Z " fill="#5678BC" transform="translate(42,153)"/>
<path d="M0 0 C2.31 0.33 4.62 0.66 7 1 C7.33 2.65 7.66 4.3 8 6 C4.63408134 4.55746343 2.48952921 2.66735273 0 0 Z " fill="#6C88C4" transform="translate(24,402)"/>
<path d="M0 0 C0.99 0.33 1.98 0.66 3 1 C-1.75 5.875 -1.75 5.875 -4 7 C-3.67 5.68 -3.34 4.36 -3 3 C-2.01 3 -1.02 3 0 3 C0 2.01 0 1.02 0 0 Z " fill="#5F7FBF" transform="translate(123,399)"/>
<path d="M0 0 C2.35953094 2.35953094 2.49141413 3.77895617 3 7 C1.02 5.35 -0.96 3.7 -3 2 C-2.01 1.34 -1.02 0.68 0 0 Z " fill="#708BC8" transform="translate(19,393)"/>
<path d="M0 0 C0.99 0.33 1.98 0.66 3 1 C2.01 2.98 1.02 4.96 0 7 C-0.66 5.68 -1.32 4.36 -2 3 C-1.34 2.01 -0.68 1.02 0 0 Z " fill="#5978BE" transform="translate(135,384)"/>
</svg>
