<?xml version="1.0" encoding="UTF-8"?>
<svg version="1.1" xmlns="http://www.w3.org/2000/svg" width="341" height="762">
<path d="M0 0 C1.49620193 1.27189488 2.97771461 2.5614691 4.4375 3.875 C5.00597656 4.38546875 5.57445313 4.8959375 6.16015625 5.421875 C7.5625 6.75 7.5625 6.75 9.4375 8.875 C9.4375 9.535 9.4375 10.195 9.4375 10.875 C10.0975 10.875 10.7575 10.875 11.4375 10.875 C12.99280689 12.88559319 14.3830652 14.86502344 15.75 17 C16.15226807 17.62801514 16.55453613 18.25603027 16.96899414 18.90307617 C25.05466351 31.99439283 27.48563073 46.00724456 28.25 61.125 C30.38611311 95.83058214 43.89247838 125.01262152 69.5 148.6875 C81.42644053 159.06480976 94.760747 166.17966784 109.6875 171.25 C110.38294922 171.48855713 111.07839844 171.72711426 111.79492188 171.97290039 C122.38904633 175.38785174 133.2010071 176.15193872 144.25 176.75 C167.82866883 178.28730395 186.47082335 185.23111205 203.0625 202.5 C216.66917404 218.24623939 221.2107507 235.40470078 221.07241821 255.69958496 C221.07819075 257.56213308 221.08613942 259.4246755 221.09605443 261.28720617 C221.11679544 266.36662405 221.10667092 271.44556811 221.09112334 276.52498698 C221.07976127 282.01793565 221.09729655 287.51080562 221.11102295 293.0037384 C221.13320817 303.74910516 221.12847517 314.49429689 221.11395974 325.2396704 C221.10264894 333.97585012 221.10114458 342.71198094 221.10657883 351.44816589 C221.10734499 352.69349062 221.10811116 353.93881535 221.10890054 355.22187719 C221.11049923 357.75205522 221.1121203 360.28223324 221.1137635 362.81241125 C221.12760148 385.8398913 221.11327255 408.867294 221.08705051 431.89475509 C221.0633247 452.8896859 221.06544793 473.88446504 221.08935547 494.87939453 C221.11616293 518.49956716 221.12663402 542.11967526 221.11129415 565.73986483 C221.10970147 568.26052124 221.10812962 570.78117767 221.10657883 573.30183411 C221.10580745 574.54191234 221.10503607 575.78199057 221.10424132 577.05964693 C221.09993164 585.78117435 221.1071951 594.50264781 221.11897659 603.22416687 C221.13302715 613.85876411 221.12914783 624.49317692 221.10257287 635.12775314 C221.08946922 640.54943225 221.08422344 645.9708043 221.10081863 651.39248085 C221.11580267 656.36311732 221.10739132 661.33316437 221.08093087 666.30374795 C221.07538159 668.09426207 221.07810567 669.8848268 221.09030981 671.67530793 C221.21757758 691.91154131 215.21029001 709.52704548 200.97338867 724.41137695 C185.51114459 740.04619607 167.68120032 747.04731789 145.8125 747.25 C137.65943474 747.20017426 130.16212694 746.69278844 122.4375 743.875 C121.59703125 743.5965625 120.7565625 743.318125 119.890625 743.03125 C109.58222718 739.31766569 99.91071137 732.90178258 92.4375 724.875 C92.4375 724.215 92.4375 723.555 92.4375 722.875 C91.7775 722.875 91.1175 722.875 90.4375 722.875 C68.15666437 695.64781886 71.28032811 662.54977319 71.33609343 629.44325089 C71.34254167 624.93677331 71.34304253 620.43029435 71.3442688 615.92381287 C71.34714121 608.12618039 71.35355851 600.32855753 71.36233521 592.53092957 C71.37498985 581.20062323 71.38099002 569.87032037 71.38526857 558.54000813 C71.39232277 540.07696228 71.40310666 521.61392083 71.41699219 503.15087891 C71.41823391 501.49711151 71.41823391 501.49711151 71.41950071 499.80993468 C71.42623114 490.88523063 71.43314501 481.96052674 71.44010353 473.03582287 C71.44614927 465.28088067 71.45213338 457.52593843 71.45800781 449.77099609 C71.45883594 448.6795542 71.45966407 447.5881123 71.46051729 446.4635964 C71.47432275 428.10227195 71.48401925 409.74094743 71.49091816 391.37961912 C71.49494938 381.11324783 71.5011162 370.84688644 71.51266479 360.58052063 C71.54010485 335.67849771 71.5420816 310.77686284 71.4375 285.875 C71.43313572 284.79153062 71.43313572 284.79153062 71.42868328 283.68617296 C71.39434688 275.3877393 71.33559291 267.09012165 71.22469902 258.79228687 C71.19801243 256.66119026 71.17717896 254.53000933 71.16322517 252.39879131 C70.91332786 218.07523379 58.17962784 188.93291281 33.81713867 164.83691406 C11.77194961 143.73859659 -16.99704088 135.23352383 -46.76953125 133.29370117 C-68.08682063 131.86671122 -87.75891433 125.05176895 -102.5625 108.875 C-102.5625 108.215 -102.5625 107.555 -102.5625 106.875 C-103.2225 106.875 -103.8825 106.875 -104.5625 106.875 C-106.09548493 104.88518556 -107.46463942 102.92426 -108.8125 100.8125 C-109.21146484 100.19068848 -109.61042969 99.56887695 -110.02148438 98.92822266 C-120.93872142 81.32615569 -123.6161221 60.36201586 -120.06591797 40.03125 C-118.81584568 35.33599779 -116.87651789 31.15226836 -114.5625 26.875 C-114.01335937 25.79089844 -113.46421875 24.70679688 -112.8984375 23.58984375 C-110.95514155 19.88035025 -108.8851408 16.3589612 -106.5625 12.875 C-105.9025 12.875 -105.2425 12.875 -104.5625 12.875 C-104.31113281 12.30265625 -104.05976562 11.7303125 -103.80078125 11.140625 C-98.85332522 2.08849724 -89.25180197 -3.24212278 -80.5625 -8.125 C-79.85222656 -8.5478125 -79.14195313 -8.970625 -78.41015625 -9.40625 C-54.60521749 -22.69272745 -20.57349818 -16.15400598 0 0 Z " fill="#264FA6" transform="translate(120.5625,15.125)"/>
<path d="M0 0 C-0.99 1.485 -0.99 1.485 -2 3 C-1.38125 3.309375 -0.7625 3.61875 -0.125 3.9375 C1.25 4.625 2.625 5.3125 4 6 C4.33 5.67 4.66 5.34 5 5 C5.66 5 6.32 5 7 5 C7 5.66 7 6.32 7 7 C7.99 7.33 8.98 7.66 10 8 C10.66666667 9.33333333 11.33333333 10.66666667 12 12 C12.99 12.33 13.98 12.66 15 13 C6.28473814 11.81980829 -1.96740883 8.27444338 -9 3 C-7.14340032 -0.71319936 -3.69365381 -0.09982848 0 0 Z " fill="#3F63B2" transform="translate(40,132)"/>
<path d="M0 0 C5.61 0 11.22 0 17 0 C17 0.33 17 0.66 17 1 C19.64 1 22.28 1 25 1 C25 1.99 25 2.98 25 4 C25.99 4 26.98 4 28 4 C28.33 3.34 28.66 2.68 29 2 C29.33 3.32 29.66 4.64 30 6 C28.75605469 5.72285156 27.51210937 5.44570312 26.23046875 5.16015625 C17.51089186 3.25069592 8.94749019 1.40213439 0 1 C0 0.67 0 0.34 0 0 Z " fill="#7E93CB" transform="translate(82,148)"/>
<path d="M0 0 C1.47968324 0.14049518 2.95874516 0.28754826 4.4375 0.4375 C5.67306641 0.55931641 5.67306641 0.55931641 6.93359375 0.68359375 C9 1 9 1 10 2 C10.99 1.67 11.98 1.34 13 1 C15.1875 1.4375 15.1875 1.4375 17 2 C17 2.99 17 3.98 17 5 C17.99 5.66 18.98 6.32 20 7 C12.84831485 6.50104522 6.58708719 3.68436185 0 1 C0 0.67 0 0.34 0 0 Z " fill="#6682C3" transform="translate(233,754)"/>
<path d="M0 0 C-0.99 1.485 -0.99 1.485 -2 3 C-1.38125 3.309375 -0.7625 3.61875 -0.125 3.9375 C1.25 4.625 2.625 5.3125 4 6 C2 7.3125 2 7.3125 -1 8 C-3.90081101 6.65415238 -6.43354639 4.89777463 -9 3 C-7.14340032 -0.71319936 -3.69365381 -0.09982848 0 0 Z " fill="#4C71BF" transform="translate(40,132)"/>
<path d="M0 0 C2.672336 3.56311466 3.77263971 5.84585747 5 10 C4.05125 9.814375 3.1025 9.62875 2.125 9.4375 C-0.89868793 8.71313368 -0.89868793 8.71313368 -3 10 C-2.01 6.7 -1.02 3.4 0 0 Z " fill="#4F70B7" transform="translate(156,118)"/>
<path d="M0 0 C7.57142857 6.28571429 7.57142857 6.28571429 10 10 C9.01 10.495 9.01 10.495 8 11 C7.34 10.34 6.68 9.68 6 9 C4.68 9 3.36 9 2 9 C1.34 6.03 0.68 3.06 0 0 Z " fill="#5E80BE" transform="translate(176,151)"/>
<path d="M0 0 C0 0.33 0 0.66 0 1 C-1.39025391 1.18175781 -1.39025391 1.18175781 -2.80859375 1.3671875 C-4.00613281 1.53476562 -5.20367187 1.70234375 -6.4375 1.875 C-7.63246094 2.03742188 -8.82742187 2.19984375 -10.05859375 2.3671875 C-11.51458984 2.68042969 -11.51458984 2.68042969 -13 3 C-13.33 3.66 -13.66 4.32 -14 5 C-16.64 5 -19.28 5 -22 5 C-21.67 4.34 -21.34 3.68 -21 3 C-14.09158937 0.78849704 -7.23785489 -0.42575617 0 0 Z " fill="#90A5D1" transform="translate(69,0)"/>
<path d="M0 0 C0.99 0.33 1.98 0.66 3 1 C2.67 1.99 2.34 2.98 2 4 C2.99 4 3.98 4 5 4 C6.25 11.625 6.25 11.625 4 15 C3.3299166 12.87607494 2.66403203 10.75082476 2 8.625 C1.62875 7.44164062 1.2575 6.25828125 0.875 5.0390625 C0 2 0 2 0 0 Z " fill="#6A84C5" transform="translate(185,224)"/>
<path d="M0 0 C0.33 0 0.66 0 1 0 C1.07427838 3.34252724 1.06546953 5.8035914 0 9 C0.66 9.33 1.32 9.66 2 10 C1.34 10.66 0.68 11.32 0 12 C-4 6.25 -4 6.25 -4 4 C-2.68 3.34 -1.36 2.68 0 2 C0 1.34 0 0.68 0 0 Z " fill="#4C6FB8" transform="translate(14,107)"/>
<path d="M0 0 C0.66 0 1.32 0 2 0 C2 1.65 2 3.3 2 5 C2.66 5 3.32 5 4 5 C4.33 4.34 4.66 3.68 5 3 C5 3.99 5 4.98 5 6 C2 7 2 7 -0.125 6.3125 C-2 5 -2 5 -2.75 2.875 C-2.8325 2.25625 -2.915 1.6375 -3 1 C-2.01 1.33 -1.02 1.66 0 2 C0 1.34 0 0.68 0 0 Z " fill="#385EAD" transform="translate(186,218)"/>
<path d="M0 0 C2.08304538 -0.05418326 4.16649768 -0.09287551 6.25 -0.125 C7.99023438 -0.15980469 7.99023438 -0.15980469 9.765625 -0.1953125 C12.82786046 -0.0103949 14.44202751 0.39176977 17 2 C16.34 2 15.68 2 15 2 C15 2.66 15 3.32 15 4 C13.35 4 11.7 4 10 4 C10.33 3.34 10.66 2.68 11 2 C7.37 1.67 3.74 1.34 0 1 C0 0.67 0 0.34 0 0 Z " fill="#7A93CB" transform="translate(266,193)"/>
<path d="M0 0 C-0.97566112 1.16959987 -1.955625 2.33561177 -2.9375 3.5 C-3.48277344 4.1496875 -4.02804687 4.799375 -4.58984375 5.46875 C-5.05519531 5.9740625 -5.52054687 6.479375 -6 7 C-6.33 7 -6.66 7 -7 7 C-7 5.02 -7 3.04 -7 1 C-3.375 -1.125 -3.375 -1.125 0 0 Z " fill="#5C7EBF" transform="translate(328,732)"/>
<path d="M0 0 C1.65 1.32 3.3 2.64 5 4 C3.35 5.32 1.7 6.64 0 8 C-1.125 2.25 -1.125 2.25 0 0 Z " fill="#486BB4" transform="translate(316,736)"/>
<path d="M0 0 C2.97069541 2.54631035 4.4775751 5.42230149 6 9 C5.67 9.66 5.34 10.32 5 11 C4.01 11 3.02 11 2 11 C2.33 9.68 2.66 8.36 3 7 C2.34 7 1.68 7 1 7 C0.67 4.69 0.34 2.38 0 0 Z " fill="#7F99CD" transform="translate(330,228)"/>
<path d="M0 0 C2.96404505 2.80804268 5.44499019 5.18315774 7 9 C5.35 8.67 3.7 8.34 2 8 C2 7.34 2 6.68 2 6 C1.34 5.34 0.68 4.68 0 4 C0 2.68 0 1.36 0 0 Z " fill="#7691CA" transform="translate(321,216)"/>
<path d="M0 0 C-3.26545761 1.88391785 -6.28111761 2.49287967 -10 3 C-10 2.01 -10 1.02 -10 0 C-6.7169902 -1.6415049 -3.57454967 -0.51888624 0 0 Z " fill="#6381C3" transform="translate(292,758)"/>
<path d="M0 0 C3.81684226 1.55500981 6.19195732 4.03595495 9 7 C7.35 7.33 5.7 7.66 4 8 C4 7.01 4 6.02 4 5 C2.68662604 3.9739266 1.35335895 2.97272675 0 2 C0 1.34 0 0.68 0 0 Z " fill="#718DC3" transform="translate(310,207)"/>
<path d="M0 0 C1.32 0 2.64 0 4 0 C4.66 1.65 5.32 3.3 6 5 C5.01 5.66 4.02 6.32 3 7 C0 2.25 0 2.25 0 0 Z " fill="#4E70B6" transform="translate(177,207)"/>
<path d="M0 0 C0 0.99 0 1.98 0 3 C0.99 3 1.98 3 3 3 C3.33 2.34 3.66 1.68 4 1 C4.33 2.32 4.66 3.64 5 5 C3.35232753 4.71890887 1.70686855 4.42481474 0.0625 4.125 C-1.31228516 3.88136719 -1.31228516 3.88136719 -2.71484375 3.6328125 C-3.46894531 3.42398438 -4.22304687 3.21515625 -5 3 C-5.33 2.34 -5.66 1.68 -6 1 C-3 0 -3 0 0 0 Z " fill="#5373BA" transform="translate(107,149)"/>
<path d="M0 0 C0.66 0.33 1.32 0.66 2 1 C-0.81070808 5.21606212 -4.5572744 6.79754241 -9 9 C-8.06725891 7.87105124 -7.12859878 6.74699124 -6.1875 5.625 C-5.66542969 4.99851562 -5.14335937 4.37203125 -4.60546875 3.7265625 C-3 2 -3 2 0 0 Z " fill="#829BCB" transform="translate(30,13)"/>
<path d="M0 0 C2.91517292 1.07401108 4.77810176 1.77810176 7 4 C5.35 4.66 3.7 5.32 2 6 C2 5.34 2 4.68 2 4 C1.34 3.67 0.68 3.34 0 3 C0 2.01 0 1.02 0 0 Z " fill="#5876BA" transform="translate(104,6)"/>
<path d="M0 0 C0.33 0 0.66 0 1 0 C1.33 3.3 1.66 6.6 2 10 C1.01 10 0.02 10 -1 10 C-0.67 6.7 -0.34 3.4 0 0 Z " fill="#6E8AC3" transform="translate(149,91)"/>
<path d="M0 0 C2.76223278 2.76223278 2.57856291 5.20706617 3 9 C1.68 8.01 0.36 7.02 -1 6 C-0.67 4.02 -0.34 2.04 0 0 Z " fill="#6986C4" transform="translate(142,45)"/>
<path d="M0 0 C-2 3 -2 3 -5.125 3.6875 C-6.07375 3.790625 -7.0225 3.89375 -8 4 C-8 3.01 -8 2.02 -8 1 C-5.07175348 0.02391783 -3.04386724 -0.08226668 0 0 Z " fill="#4063B0" transform="translate(40,132)"/>
<path d="M0 0 C0.33 0.66 0.66 1.32 1 2 C-0.73397418 5.65047197 -2.19333016 7.55609075 -6 9 C-5.34 7.35 -4.68 5.7 -4 4 C-3.34 4 -2.68 4 -2 4 C-1.34 2.68 -0.68 1.36 0 0 Z " fill="#8BA0CF" transform="translate(18,24)"/>
<path d="M0 0 C0.33 0.66 0.66 1.32 1 2 C1.66 2 2.32 2 3 2 C3.625 4.3125 3.625 4.3125 4 7 C3.01 8.485 3.01 8.485 2 10 C1.34 6.7 0.68 3.4 0 0 Z " fill="#7E94CC" transform="translate(194,702)"/>
<path d="M0 0 C2.91517292 1.07401108 4.77810176 1.77810176 7 4 C5.02 4.99 5.02 4.99 3 6 C2.01 4.02 1.02 2.04 0 0 Z " fill="#6A87C3" transform="translate(206,176)"/>
<path d="M0 0 C1.98 0 3.96 0 6 0 C6.33 1.65 6.66 3.3 7 5 C4.11562221 3.70700306 2.12780579 2.34058637 0 0 Z " fill="#728DC5" transform="translate(24,129)"/>
<path d="M0 0 C2.31 0.33 4.62 0.66 7 1 C4.64046906 3.35953094 3.22104383 3.49141413 0 4 C0 2.68 0 1.36 0 0 Z " fill="#6180BC" transform="translate(292,754)"/>
</svg>
