<?xml version="1.0" encoding="UTF-8"?>
<svg version="1.1" xmlns="http://www.w3.org/2000/svg" width="35" height="167">
<path d="M0 0 C1.3303125 0.9590625 1.3303125 0.9590625 2.6875 1.9375 C3.24566406 2.33195313 3.80382812 2.72640625 4.37890625 3.1328125 C8.08939703 6.42146094 9.11463929 9.65919134 9.50317383 14.58935547 C9.7679282 23.95272611 6.74888131 28.82196541 0.6875 35.9375 C-2.89770204 41.9288779 -3.911568 48.55967755 -2.75 55.375 C-1.14153632 61.72131927 2.90678671 66.61835609 6.83203125 71.73046875 C10.15494086 77.47385568 10.21564817 84.53228322 8.6875 90.9375 C6.9758811 94.54065503 4.49782412 97.41702515 1.8515625 100.38671875 C-2.27745283 105.25359061 -3.3417054 110.67780919 -3.3125 116.9375 C-2.52532955 123.9380692 -0.19420003 128.31465414 4.375 133.625 C9.29142371 139.76852457 9.96177519 144.73213304 9.3125 152.34375 C8.23885409 158.51721399 6.13749581 161.08506414 1.125 164.875 C-5.12451706 166.80666891 -11.52646488 166.84929331 -17.75 164.8125 C-21.41864538 162.12812533 -24.25666083 159.04917834 -26.3125 154.9375 C-27.37025843 147.78266229 -27.41621624 141.74722135 -23.24145508 135.71313477 C-22.01147787 134.07776093 -20.76933323 132.45318377 -19.515625 130.8359375 C-14.89034693 124.75090856 -13.35263548 118.50976458 -14.3125 110.9375 C-15.61346919 105.29996684 -18.51862836 100.80533278 -21.8125 96.11328125 C-22.3075 95.39527344 -22.8025 94.67726563 -23.3125 93.9375 C-23.85777344 93.15246094 -24.40304688 92.36742188 -24.96484375 91.55859375 C-27.51013357 86.60818949 -27.11354561 81.33975157 -26.3125 75.9375 C-24.75157829 72.52771957 -22.70035811 69.81112336 -20.3125 66.9375 C-15.3726562 60.07660583 -13.23371777 53.36029971 -14.3125 44.9375 C-15.87115926 38.85083694 -18.58332715 34.49919483 -22.5625 29.6875 C-26.74814321 24.19774781 -27.27394209 19.85301584 -26.828125 13.046875 C-25.86765038 7.254922 -23.29911009 4.45331512 -18.75 1.0625 C-12.79578097 -2.38760823 -6.40601435 -2.05475932 0 0 Z " fill="#9CFDB5" transform="translate(26.3125,1.0625)"/>
<path d="M0 0 C2.375 1.625 2.375 1.625 3.375 3.625 C2.055 3.625 0.735 3.625 -0.625 3.625 C-1.285 4.285 -1.945 4.945 -2.625 5.625 C-2.625 4.965 -2.625 4.305 -2.625 3.625 C-3.945 3.295 -5.265 2.965 -6.625 2.625 C-5.965 1.635 -5.305 0.645 -4.625 -0.375 C-5.30046875 -0.21902344 -5.9759375 -0.06304687 -6.671875 0.09765625 C-7.56390625 0.29230469 -8.4559375 0.48695313 -9.375 0.6875 C-10.25671875 0.88472656 -11.1384375 1.08195313 -12.046875 1.28515625 C-14.61179028 1.62325872 -16.19591639 1.43658635 -18.625 0.625 C-12.89184146 -2.75298778 -6.06589736 -2.30085762 0 0 Z " fill="#B3FDC7" transform="translate(26.625,1.375)"/>
<path d="M0 0 C0.33 0 0.66 0 1 0 C1.33 4.62 1.66 9.24 2 14 C0.35 14.66 -1.3 15.32 -3 16 C-2.01 10.72 -1.02 5.44 0 0 Z " fill="#B3FDC6" transform="translate(13,48)"/>
<path d="M0 0 C2.02350324 3.03525486 2.32124018 4.19426202 2.625 7.6875 C2.69976563 8.49574219 2.77453125 9.30398437 2.8515625 10.13671875 C2.92503906 11.05904297 2.92503906 11.05904297 3 12 C2.67 11.01 2.34 10.02 2 9 C1.34 9 0.68 9 0 9 C0 8.34 0 7.68 0 7 C-0.66 7 -1.32 7 -2 7 C-1.125 1.125 -1.125 1.125 0 0 Z " fill="#AAFDBF" transform="translate(21,115)"/>
<path d="M0 0 C0 3.41099168 -0.49145406 6.63088314 -1 10 C-1.99 10.33 -2.98 10.66 -4 11 C-3.56179109 6.44262737 -3.14958831 3.42346555 0 0 Z " fill="#BFFECD" transform="translate(4,5)"/>
<path d="M0 0 C0.33 0.66 0.66 1.32 1 2 C0.33333333 3.33333333 -0.33333333 4.66666667 -1 6 C-1 7.32 -1 8.64 -1 10 C-1.66 10 -2.32 10 -3 10 C-3 9.34 -3 8.68 -3 8 C-3.66 8 -4.32 8 -5 8 C-3.62845496 5.04590299 -2.01136276 2.55991624 0 0 Z " fill="#C0FDCE" transform="translate(8,131)"/>
<path d="M0 0 C0.598125 0.165 1.19625 0.33 1.8125 0.5 C4.11344336 1.1114124 4.11344336 1.1114124 7 1 C7.66 2.32 8.32 3.64 9 5 C2.25 3.375 2.25 3.375 0 0 Z " fill="#B6FDCA" transform="translate(5,162)"/>
</svg>
