<?xml version="1.0" encoding="UTF-8"?>
<svg version="1.1" xmlns="http://www.w3.org/2000/svg" width="265" height="278">
<path d="M0 0 C87.45 0 174.9 0 265 0 C265 91.74 265 183.48 265 278 C177.55 278 90.1 278 0 278 C0 186.26 0 94.52 0 0 Z " fill="#033DFE" transform="translate(0,0)"/>
<path d="M0 0 C3.5625 0.3125 3.5625 0.3125 5.5 1.5 C6.97609492 4.01804428 7.05339348 5.43726676 6.5625 8.3125 C4.31066789 11.59642183 2.25777803 12.51665382 -1.5 13.3125 C-4.17602308 13.89338071 -5.23631759 14.13143583 -7.3125 16 C-8.59145114 18.45440085 -8.59145114 18.45440085 -9.4375 21.875 C-10.79887515 26.55472707 -10.79887515 26.55472707 -13.4375 28.3125 C-16.33231975 28.61093503 -19.00744596 28.73282551 -21.90234375 28.7109375 C-22.73206192 28.71380768 -23.56178009 28.71667786 -24.41664124 28.71963501 C-26.17091555 28.72167583 -27.92521261 28.71614465 -29.67944336 28.70361328 C-32.36168496 28.68757959 -35.04241511 28.70345023 -37.72460938 28.72265625 C-39.42969082 28.72067342 -41.13477133 28.71682893 -42.83984375 28.7109375 C-43.64099106 28.71701019 -44.44213837 28.72308289 -45.26756287 28.7293396 C-48.54448837 28.68806623 -51.01445978 28.53264057 -53.94750977 27.00634766 C-55.4375 25.3125 -55.4375 25.3125 -55.875 21.8125 C-55.4375 18.3125 -55.4375 18.3125 -54.15597534 16.61680603 C-51.1076023 14.30312061 -47.25109889 14.91454224 -43.5703125 14.94140625 C-41.77994602 14.92402194 -39.98958148 14.90643758 -38.19921875 14.88867188 C-35.379358 14.8786027 -32.55962407 14.87500174 -29.73974609 14.87670898 C-27.01621764 14.8731348 -24.29366679 14.84577419 -21.5703125 14.81640625 C-20.73057892 14.82458878 -19.89084534 14.8327713 -19.02566528 14.84120178 C-14.97148353 14.78975068 -12.93008677 14.62302217 -9.42016602 12.41040039 C-7.35079469 10.2207553 -6.72292619 9.11407857 -6.25 6.1875 C-5.23655281 1.35413648 -4.95194246 0.45017659 0 0 Z " fill="#8EF4B4" transform="translate(157.4375,148.6875)"/>
<path d="M0 0 C0.82830322 -0.00524185 1.65660645 -0.0104837 2.51000977 -0.0158844 C4.25828939 -0.02229737 6.00661221 -0.02097697 7.75488281 -0.01245117 C10.42851552 -0.00393487 13.10001547 -0.03272038 15.7734375 -0.06445312 C17.47395769 -0.06606513 19.17448167 -0.06548761 20.875 -0.0625 C21.67301025 -0.07373398 22.47102051 -0.08496796 23.29321289 -0.09654236 C26.90515918 -0.05121786 28.99861163 0.09898626 31.91381836 2.3215332 C33.53692634 4.57141417 34.2896291 6.38688433 35 9.05859375 C36.03368363 12.96408208 36.03368363 12.96408208 39.4375 15.43359375 C40.5925 15.74296875 41.7475 16.05234375 42.9375 16.37109375 C47.99305556 17.90581597 47.99305556 17.90581597 49.4375 20.43359375 C49.21419287 24.08094354 49.05377165 25.8173221 46.4375 28.43359375 C40.28392113 29.10489326 40.28392113 29.10489326 37.625 26.99609375 C35.90293867 23.28006666 35.16676345 19.44883249 34.4375 15.43359375 C31.68329182 14.66002554 29.21678204 14.30267737 26.35913086 14.27587891 C25.56828598 14.26561676 24.7774411 14.25535461 23.96263123 14.24478149 C23.11773636 14.23748016 22.27284149 14.23017883 21.40234375 14.22265625 C19.60611042 14.19460415 17.80988657 14.16593982 16.01367188 14.13671875 C13.18709413 14.0953578 10.36069659 14.058461 7.53393555 14.03222656 C4.80220315 14.00468846 2.07127002 13.95883928 -0.66015625 13.91015625 C-1.50707535 13.90690338 -2.35399445 13.90365051 -3.22657776 13.90029907 C-9.11143482 13.77653089 -9.11143482 13.77653089 -11.28196716 12.12631226 C-13.42903746 9.28812996 -12.98895813 6.84525883 -12.5625 3.43359375 C-9.14291305 -0.4430944 -4.80688864 -0.01768309 0 0 Z " fill="#8FF4B4" transform="translate(114.5625,100.56640625)"/>
<path d="M0 0 C0.75539063 -0.01611328 1.51078125 -0.03222656 2.2890625 -0.04882812 C7.02422096 -0.05296725 9.62359487 0.59549652 13.625 3.3125 C16.50898658 3.86029633 18.62696481 3.59802716 21.625 3.3125 C22.98661311 2.35136134 24.32355198 1.35365841 25.625 0.3125 C28.78980542 -0.07502719 30.7451813 -0.16998122 33.5625 1.375 C35.2740104 4.49598955 34.41791991 6.95783884 33.625 10.3125 C31.625 12.3125 31.625 12.3125 28.75 12.625 C25.625 12.3125 25.625 12.3125 23.75 10.8125 C21.10122628 8.94277737 18.91151812 8.95210061 15.72265625 8.9140625 C13.48164745 9.19614631 13.48164745 9.19614631 11.41015625 10.8125 C7.56008799 12.88602905 4.30157687 12.75356517 0 12.6875 C-0.763125 12.69910156 -1.52625 12.71070313 -2.3125 12.72265625 C-7.78868431 12.69383423 -7.78868431 12.69383423 -10.375 11.01171875 C-12.0788318 8.1165358 -11.72967039 5.5636452 -11.375 2.3125 C-7.55898858 -0.23150761 -4.42085144 -0.01866914 0 0 Z " fill="#92F9B2" transform="translate(113.375,132.6875)"/>
</svg>
